# xmcd
#
# Track frame offsets:
#	150
#	16482
#	32895
#	46311
#	59885
#	77223
#	91161
#	107369
#	125919
#	143594
#	159293
#	173033
#	188799
#	209045
#	225982
#	239374
#	256353
#	272557
#
# Disc length: 3879
#
# Revision: 2
# Processed by: cddbd v1.5.1PL0 Copyright (c) Steve Scherf et al.
# Submitted via: audiograbber 1.83.01
# Normalized: r1:DSETVAR1
#
DISCID=f60f2512
DTITLE=Various Artist - RC83 Top Hits USA
DYEAR=2004
DGENRE=
TTITLE0=Kenny Chesney/Uncle Kracker - When The Sun Goes Down
TTITLE1=Gretchen Wilson - Redneck Woman
TTITLE2=Montgomery Gentry - If You Ever Stop Loving Me
TTITLE3=Joe Nichols - Cool To Be A Fool
TTITLE4=Tracy Lawrence - Pant Me A Birmingham
TTITLE5=Blue Country - Good Little Girls
TTITLE6=Carolyn Dawn Johnson - Simple Life
TTITLE7=George Strait - Desperately
TTITLE8=Lonestar - Let's Be Us Again
TTITLE9=Shedaisy - Passenger Seat
TTITLE10=Billy Dean - Thank God I'm A Country Boy
TTITLE11=Pat Green - A Guy Like Me
TTITLE12=John michael Montgomery - Letters From Home
TTITLE13=Kellie Coffey - Texas Plates
TTITLE14=Brooks and Dunn - That's What She Gets For Loving Me
TTITLE15=Leann Rimes - This Love
TTITLE16=Dierks Bentley - My Last Name
TTITLE17=Amy Dalley - I Think You're Beautiful
EXTD=This Is How EACH Disc Should Be Recorded Into Database!
EXTT0=
EXTT1=
EXTT2=
EXTT3=
EXTT4=
EXTT5=
EXTT6=
EXTT7=
EXTT8=
EXTT9=
EXTT10=
EXTT11=
EXTT12=
EXTT13=
EXTT14=
EXTT15=
EXTT16=
EXTT17=
PLAYORDER=
